<?xml version="1.0" encoding="UTF-8" standalone="no"?><!DOCTYPE svg PUBLIC "-//W3C//DTD SVG 1.1//EN" "http://www.w3.org/Graphics/SVG/1.1/DTD/svg11.dtd"><svg width="100%" height="100%" viewBox="0 0 500 500" version="1.1" xmlns="http://www.w3.org/2000/svg" xmlns:xlink="http://www.w3.org/1999/xlink" xml:space="preserve" xmlns:serif="http://www.serif.com/" style="fill-rule:evenodd;clip-rule:evenodd;stroke-linejoin:round;stroke-miterlimit:2;"><path d="M169,11c3.3,-0.471 7.5,-1 10,0c2.417,0.967 3.642,3.779 5,6c1.833,3 3.667,8.5 6,12c2.226,3.34 5.333,6.5 8,9c2.432,2.28 5.142,4.285 8,6c4.167,2.5 12,7 17,9c4.129,1.652 8.564,2.683 13,3c7,0.5 22,0.5 29,0c4.436,-0.317 8.871,-1.348 13,-3c5,-2 12.333,-6 17,-9c3.985,-2.562 7.833,-5.667 11,-9c3.123,-3.287 5.667,-7.333 8,-11c2.242,-3.524 4.5,-8.833 6,-11c0.684,-0.988 1.818,-1.785 3,-2c1.833,-0.333 5.4,-0.591 8,0c7.333,1.667 29.071,7.717 36,10c2.118,0.698 4.741,1.701 5.574,3.701c0.833,2 -0.115,5.565 -0.574,8.299c-0.596,3.55 -2.252,8.616 -3,13c-1.167,6.833 -3,19.333 -4,28c-0.92,7.975 -1.667,17 -2,24c-0.285,5.993 -0.39,12.013 0,18c0.5,7.667 2,21 3,28c0.675,4.725 2.051,10.242 3,14c0.732,2.896 1.406,5.852 2.695,8.547c1.833,3.833 8.305,14.453 8.305,14.453l7,8l10,6l7,4l1,1l0,286l-4,3l-302,0l-4,-4l0,-285l5,-3l11,-6l5,-4l9,-14l5,-11l5,-20l2,-22l0,-26c0,0 -1.667,-21.167 -3,-31c-1.274,-9.395 -4.045,-22.844 -5,-28c-0.184,-0.992 -0.603,-1.936 -0.728,-2.937c-0.167,-1.333 -0.936,-3.509 -0.272,-5.063c0.788,-1.844 2.611,-4.965 5,-6c5,-2.167 19,-5.333 25,-7c3.662,-1.017 7.5,-2.5 11,-3Zm-5,20c-3,0.667 -13.167,3 -16,4c-0.703,0.248 -1.092,1.26 -1,2c0.667,5.333 3.833,21 5,30c1.032,7.961 2,24 2,24l0,31l-3,29l-4,15l-6,16l-7,11l-5,5l-7,6l-10,7l0,261l276,0l0,-261l-10,-7l-7,-7l-9,-11l-5,-11c0,0 -5.333,-14.333 -7,-21c-1.555,-6.22 -2.333,-14 -3,-19c-0.487,-3.649 -0.908,-7.319 -1,-11c-0.167,-6.667 -0.467,-19.345 0,-29c0.5,-10.333 1.833,-23.167 3,-33c1.033,-8.708 4.833,-21.167 4,-26c-0.537,-3.116 -6,-2.167 -9,-3c-2.961,-0.823 -7.167,-3.833 -9,-2c-1.833,1.833 -1.259,8.679 -2,13c-1,5.833 -2.156,14.778 -4,22c-2,7.833 -5.846,16.771 -8.346,23.271c-1.873,4.87 -9.523,18.221 -10.654,19.729c-1.5,2 -3.069,5.518 -5,8c-2.333,3 -5.606,7.069 -9,10c-3.667,3.167 -8.5,6.5 -13,9c-4.438,2.466 -9.833,4.5 -14,6c-3.576,1.287 -7.229,2.529 -11,3c-4,0.5 -9.167,0.333 -13,0c-3.387,-0.294 -6.748,-1.01 -10,-2c-3.833,-1.167 -9.167,-3.167 -13,-5c-3.507,-1.677 -6.815,-3.771 -10,-6c-3.333,-2.333 -7,-5.167 -10,-8c-2.918,-2.756 -6,-6.333 -8,-9c-1.612,-2.15 -2.509,-4.764 -4,-7c-1.667,-2.5 -4.412,-5.069 -6,-8c-2.167,-4 -5.07,-10.508 -7,-16c-2.167,-6.167 -4.521,-13.872 -6,-21c-1.833,-8.833 -3.833,-26.667 -5,-32c-0.142,-0.651 -1.349,-0.145 -2,0Zm22,20c-0.333,1 0.5,6.167 1,9c0.478,2.707 1.5,6.167 2,8c0.277,1.017 0.595,2.027 1,3c0.833,2 2.726,5.974 4,9c1.333,3.167 2.339,6.817 4,10c2,3.833 5.167,9.167 8,13c2.666,3.606 6,7 9,10c2.838,2.838 5.614,5.845 9,8c3.667,2.333 10,4.833 13,6c1.584,0.616 3.302,0.923 5,1c3.667,0.167 12.167,0.667 17,0c4.177,-0.576 8.196,-2.181 12,-4c3.833,-1.833 7.711,-4.159 11,-7c3.667,-3.167 7.692,-7.699 11,-12c3.333,-4.333 6.5,-9.333 9,-14c2.398,-4.475 4.333,-9.833 6,-14c1.449,-3.623 3.054,-7.215 4,-11c1,-4 3.5,-12 2,-13c-1.5,-1 -7.208,4.876 -11,7c-4.167,2.333 -9.134,5.117 -14,7c-5.167,2 -11.202,3.873 -17,5c-6,1.167 -12.667,1.833 -19,2c-6.333,0.167 -13,-0.167 -19,-1c-5.766,-0.801 -11.525,-2.023 -17,-4c-6,-2.167 -14.333,-6.5 -19,-9c-3.178,-1.703 -7,-4.5 -9,-6c-1.131,-0.849 -2.667,-4 -3,-3Z" style="fill-rule:nonzero;"/></svg>